<svg width="33" height="40" viewBox="0 0 33 40" fill="none" xmlns="http://www.w3.org/2000/svg">
<path d="M16 38C23.732 38 30 34.866 30 31C30 27.134 23.732 24 16 24C8.26801 24 2 27.134 2 31C2 34.866 8.26801 38 16 38Z" stroke="#AAECFF" stroke-width="4"/>
<path d="M2.01562 9.01074V30.0022" stroke="#2BBFFF" stroke-width="4" stroke-linecap="round"/>
<path d="M30.0156 9.01074V30.0022" stroke="#AE2BFF" stroke-width="4" stroke-linecap="round"/>
<path d="M16 16C23.732 16 30 12.866 30 9C30 5.13401 23.732 2 16 2C8.26801 2 2 5.13401 2 9C2 12.866 8.26801 16 16 16Z" stroke="#30D0FF" stroke-width="4"/>
</svg>
