<svg width="27" height="34" viewBox="0 0 27 34" fill="none" xmlns="http://www.w3.org/2000/svg">
<path d="M23.4336 2.59375C23.4336 2.59375 20.2383 9.27148 23.4336 17.2188C26.6289 25.166 23.4336 31.8438 23.4336 31.8438" stroke="#FFCD44" stroke-width="4" stroke-linecap="round"/>
<path d="M23.4336 17.2188C26.6289 25.166 23.4336 31.8438 23.4336 31.8438" stroke="#FF943C" stroke-width="4" stroke-linecap="round"/>
<path d="M13.4336 2.59375C13.4336 2.59375 10.2383 9.27148 13.4336 17.2188C16.6289 25.166 13.4336 31.8438 13.4336 31.8438" stroke="#FFCD44" stroke-width="4" stroke-linecap="round"/>
<path d="M13.4336 17.2188C16.6289 25.166 13.4336 31.8438 13.4336 31.8438" stroke="#FF943C" stroke-width="4" stroke-linecap="round"/>
<path d="M3.43359 2.59375C3.43359 2.59375 0.238281 9.27148 3.43359 17.2188C6.62891 25.166 3.43359 31.8438 3.43359 31.8438" stroke="#FFCD44" stroke-width="4" stroke-linecap="round"/>
<path d="M3.43359 17.2188C6.62891 25.166 3.43359 31.8438 3.43359 31.8438" stroke="#FF943C" stroke-width="4" stroke-linecap="round"/>
</svg>
