<svg width="134" height="48" viewBox="0 0 134 48" fill="none" xmlns="http://www.w3.org/2000/svg">
<mask id="mask0" mask-type="alpha" maskUnits="userSpaceOnUse" x="0" y="0" width="134" height="48">
<rect width="133.844" height="47.9995" fill="white"/>
</mask>
<g mask="url(#mask0)">
<path fill-rule="evenodd" clip-rule="evenodd" d="M87.4264 17.1333C88.2577 17.1333 88.9326 17.8112 88.9326 18.6462C88.9326 19.4813 88.2577 20.1592 87.4264 20.1592C86.595 20.1592 85.92 19.4813 85.92 18.6462C85.92 17.8112 86.595 17.1333 87.4264 17.1333ZM110.988 10.0058V15.3502C110.988 18.0044 108.843 20.1592 106.201 20.1592C103.558 20.1592 101.413 18.0044 101.413 15.3502V10.0058H103.995V15.3545C103.995 16.5772 104.983 17.5699 106.201 17.5699C107.418 17.5699 108.406 16.5772 108.406 15.3545V10.0058H110.988ZM93.6942 19.8712H91.2996V10.005H96.038C98.1723 10.005 99.905 11.7456 99.905 13.8892C99.905 15.1549 99.301 16.28 98.3671 16.9893L99.905 19.8712H97.221L96.1011 17.7728C96.0802 17.7733 96.0592 17.7734 96.038 17.7734H93.6942V19.8712ZM51.0892 19.7632H48.5864V9.89697H51.1464L54.309 15.4399L57.4716 9.89697H60.0316V19.7632H57.5382V14.4776L55.0094 19.0124H53.6086L51.0892 14.4946V19.7632ZM79.3854 17.5293H83.7514V19.7632H76.8826V9.89697H79.3854V17.5293ZM75.0404 19.7632H72.5376V9.89697H75.0404V19.7632ZM71.7988 19.7632H69.0055L68.4391 18.3923H64.2114L63.645 19.7632H60.8517L64.9287 9.89697H67.7218L71.7988 19.7632ZM65.0077 16.057H67.6561L66.3319 12.8524L65.0077 16.057ZM96.0272 12.586H93.6942V15.1923H96.0272C96.7432 15.1923 97.3247 14.6084 97.3247 13.8892C97.3247 13.17 96.7433 12.586 96.0272 12.586Z" fill="white"/>
<path fill-rule="evenodd" clip-rule="evenodd" d="M87.4718 23.8743V29.2196C87.4718 31.8745 85.3262 34.0297 82.6831 34.0297C80.0402 34.0297 77.8944 31.8745 77.8944 29.2196V23.8743H80.4772V29.2241C80.4772 30.447 81.4656 31.4399 82.6831 31.4399C83.9008 31.4399 84.8892 30.447 84.8892 29.2241V23.8743H87.4718ZM57.2036 25.5001C56.25 24.3329 54.8029 23.5876 53.1839 23.5876C50.3152 23.5876 47.9863 25.9269 47.9863 28.8084C47.9863 31.6899 50.3152 34.0292 53.1839 34.0292C54.8307 34.0292 56.2997 33.2582 57.2524 32.0561L55.5054 30.5222C54.9988 31.2139 54.1958 31.661 53.2928 31.661C51.7618 31.661 50.5189 30.3761 50.5189 28.7934C50.5189 27.2107 51.7618 25.9258 53.2928 25.9258C54.1855 25.9258 54.9803 26.3627 55.4879 27.0408L57.2036 25.5001ZM71.235 23.5876C74.1035 23.5876 76.4326 25.9269 76.4326 28.8084C76.4326 31.6899 74.1035 34.0292 71.235 34.0292C68.3663 34.0292 66.0374 31.6899 66.0374 28.8084C66.0374 25.9269 68.3663 23.5876 71.235 23.5876ZM61.1366 31.5081H65.5035V33.7425H59.0638H58.6333V23.8743H61.1366V31.5081ZM94.0953 33.7425H89.4327H89.2179V23.8743H94.0953C96.8065 23.8743 99.0075 26.0853 99.0075 28.8084C99.0075 31.5316 96.8065 33.7425 94.0953 33.7425ZM71.235 26.1382C72.7021 26.1382 73.8933 27.3346 73.8933 28.8084C73.8933 30.2822 72.7021 31.4786 71.235 31.4786C69.7677 31.4786 68.5765 30.2822 68.5765 28.8084C68.5765 27.3346 69.7677 26.1382 71.235 26.1382ZM94.0927 26.4558H91.7201V31.262H94.0927C95.4023 31.262 96.4654 30.1942 96.4654 28.8789V28.8389C96.4654 27.5236 95.4023 26.4559 94.0927 26.4558Z" fill="white"/>
<path fill-rule="evenodd" clip-rule="evenodd" d="M47.9575 46.2452C48.9661 47.2128 50.3812 47.8479 52.4132 47.8479C55.1076 47.8479 56.5979 46.5022 56.5979 44.4762C56.5979 42.1929 54.3099 41.7091 52.6541 41.3614C51.5402 41.1498 50.9229 40.9684 50.9229 40.439C50.9229 40.0006 51.2541 39.6529 52.1122 39.6529C53.0003 39.6529 54.0992 40.0006 54.9421 40.6962L56.357 38.8364C55.2883 37.914 53.8883 37.4302 52.2777 37.4302C49.7038 37.4302 48.2736 38.8969 48.2736 40.5903C48.2736 42.9792 50.5919 43.4027 52.2477 43.7352C53.3164 43.962 53.9637 44.1888 53.9637 44.7633C53.9637 45.2473 53.4218 45.6252 52.5337 45.6252C51.1638 45.6252 50.05 45.0205 49.3274 44.2947L47.9575 46.2452ZM87.0929 37.7011V43.0419C87.0929 45.6945 84.9489 47.8479 82.3082 47.8479C79.6676 47.8479 77.5236 45.6945 77.5236 43.0419V37.7011H80.1041V43.0462C80.1041 44.2682 81.0916 45.2603 82.3082 45.2603C83.5247 45.2603 84.5124 44.2682 84.5124 43.0462V37.7011H87.0929ZM63.0038 37.415C65.87 37.415 68.1969 39.7525 68.1969 42.6315C68.1969 45.5105 65.87 47.8479 63.0038 47.8479C60.1376 47.8479 57.8105 45.5105 57.8105 42.6315C57.8105 39.7525 60.1376 37.415 63.0038 37.415ZM124.975 46.2452C125.983 47.2128 127.398 47.8479 129.43 47.8479C132.125 47.8479 133.615 46.5022 133.615 44.4762C133.615 42.1929 131.327 41.7091 129.671 41.3614C128.557 41.1498 127.94 40.9684 127.94 40.439C127.94 40.0006 128.271 39.6529 129.129 39.6529C130.017 39.6529 131.116 40.0006 131.959 40.6962L133.374 38.8364C132.305 37.914 130.905 37.4302 129.295 37.4302C126.721 37.4302 125.291 38.8969 125.291 40.5903C125.291 42.9792 127.609 43.4027 129.265 43.7352C130.334 43.962 130.981 44.1888 130.981 44.7633C130.981 45.2473 130.439 45.6252 129.551 45.6252C128.181 45.6252 127.067 45.0205 126.345 44.2947L124.975 46.2452ZM107.589 37.415C110.455 37.415 112.782 39.7525 112.782 42.6315C112.782 45.5105 110.455 47.8479 107.589 47.8479C104.723 47.8479 102.396 45.5105 102.396 42.6315C102.396 39.7525 104.723 37.415 107.589 37.415ZM72.3854 45.3289H76.7486V47.5613H70.3143H69.8843V37.7016H72.3854V45.3289ZM123.441 47.5613H120.94L116.741 41.8145V47.5613H114.24V37.7016H116.741L120.913 43.4084L120.94 43.4531V37.7016H123.441V47.5613ZM100.848 47.5613H98.3464V37.7016H100.848V47.5613ZM96.7337 39.9671H93.9703V47.5609H91.4691V39.9671H88.7057V37.7011H96.7337V39.9671ZM63.0038 39.9635C64.4697 39.9635 65.66 41.159 65.66 42.6315C65.66 44.104 64.4697 45.2994 63.0038 45.2994C61.5378 45.2994 60.3476 44.104 60.3476 42.6315C60.3476 41.159 61.5378 39.9635 63.0038 39.9635ZM107.589 39.9635C109.055 39.9635 110.245 41.159 110.245 42.6315C110.245 44.104 109.055 45.2994 107.589 45.2994C106.123 45.2994 104.933 44.104 104.933 42.6315C104.933 41.159 106.123 39.9635 107.589 39.9635Z" fill="white"/>
<path fill-rule="evenodd" clip-rule="evenodd" d="M0.140898 10.8611C0.344526 10.2168 0.778712 9.6439 1.40684 9.27969L16.7595 0.37627C18.0957 -0.398658 19.8067 0.0618783 20.5782 1.40406C21.3495 2.74608 20.891 4.46468 19.555 5.23961L8.39208 11.7133L19.555 18.1869C20.891 18.9618 21.3495 20.6804 20.5782 22.0226C19.8067 23.3646 18.0957 23.8252 16.7595 23.0502L5.59976 16.5785V29.522C5.59976 31.0717 4.34728 32.3299 2.80448 32.3299C1.26167 32.3299 0.0090332 31.0717 0.0090332 29.522V11.7152V11.7119C0.0090332 11.5022 0.0323518 11.2914 0.0803028 11.0834L0.0806312 11.0813L0.0807955 11.0809L0.0809597 11.0803L0.0817808 11.0765C0.098695 11.0036 0.118565 10.9317 0.140898 10.8611Z" fill="#FFCD44"/>
<path fill-rule="evenodd" clip-rule="evenodd" d="M27.921 11.7133L16.7581 5.23961C15.4219 4.46468 14.9636 2.74608 15.7349 1.40406C16.5064 0.0618783 18.2173 -0.398658 19.5534 0.37627L34.9062 9.27969C35.5344 9.6439 35.9684 10.2168 36.172 10.8611C36.1945 10.9317 36.2144 11.0036 36.2313 11.0765L36.2323 11.0813L36.2328 11.0834C36.2806 11.2914 36.304 11.5022 36.304 11.7119V11.7152V29.522C36.304 31.0717 35.0514 32.3299 33.5086 32.3299C31.9658 32.3299 30.7132 31.0717 30.7132 29.522V16.5785L19.5534 23.0502C18.2173 23.8252 16.5064 23.3646 15.7349 22.0226C14.9636 20.6804 15.4219 18.9618 16.7581 18.1869L27.921 11.7133Z" fill="#27BEFF"/>
<path fill-rule="evenodd" clip-rule="evenodd" d="M18.1566 0C18.5308 0.000329897 18.9011 0.0762062 19.2443 0.221526C19.3491 0.266062 19.4524 0.317691 19.5534 0.376247L19.6155 0.412206C20.0017 0.648742 20.3362 0.982928 20.5783 1.40404C21.3496 2.74606 20.8911 4.46466 19.555 5.23959L18.1566 6.05064L16.7581 5.23959C15.4219 4.46466 14.9636 2.74606 15.7349 1.40404C15.9769 0.982928 16.3113 0.648742 16.6977 0.412206L16.7596 0.376247C16.8607 0.317691 16.9639 0.266062 17.0688 0.221526C17.412 0.0762062 17.7823 0.000329897 18.1566 0V0Z" fill="#007C65"/>
<path fill-rule="evenodd" clip-rule="evenodd" d="M20.9436 33.5631L32.1065 27.0893C33.4427 26.3146 35.1537 26.775 35.9252 28.1171C36.6965 29.4592 36.238 31.1779 34.9019 31.9527L19.5491 40.8561C18.9211 41.2205 18.2101 41.3117 17.5529 41.1667C17.4808 41.1509 17.4089 41.1322 17.3374 41.1103L17.3328 41.109L17.3307 41.1083C17.1276 41.046 16.9339 40.9609 16.7533 40.8559L16.7505 40.8543L1.39783 31.9509C0.0616034 31.1761 -0.396887 29.4573 0.374599 28.1153C1.14592 26.7731 2.85705 26.3128 4.19311 27.0875L15.3529 33.5593V20.6156C15.3529 19.0659 16.6053 17.8079 18.1482 17.8079C19.691 17.8079 20.9436 19.0659 20.9436 20.6156V33.5631Z" fill="#AC5ED1"/>
<path fill-rule="evenodd" clip-rule="evenodd" d="M0.0090332 29.2907C0.0412195 28.8887 0.160604 28.4875 0.374577 28.1154C1.1459 26.7732 2.85703 26.3129 4.19308 27.0876L5.59976 27.9035V29.5221C5.59976 31.0718 4.34728 32.33 2.80448 32.33C1.26167 32.33 0.0090332 31.0718 0.0090332 29.5221L0.0090332 29.2907Z" fill="#9F008C"/>
<path fill-rule="evenodd" clip-rule="evenodd" d="M30.7131 27.8974L32.1065 27.0893C33.4427 26.3146 35.1537 26.7749 35.9252 28.1171C36.6965 29.4591 36.238 31.1779 34.9019 31.9527L34.7881 32.0187C34.4047 32.2176 33.9695 32.3299 33.5086 32.3299C31.9658 32.3299 30.7131 31.0717 30.7131 29.522V27.8974Z" fill="#5F1DC0"/>
<path fill-rule="evenodd" clip-rule="evenodd" d="M16.9194 18.0931L18.1564 17.3757L19.5549 18.1868C20.5208 18.7469 21.0281 19.8005 20.9435 20.8484V22.244L19.6158 23.0138C19.4958 23.0874 19.3706 23.1516 19.2417 23.206C18.8905 23.3551 18.5217 23.4267 18.1564 23.4264C17.7912 23.4267 17.4224 23.3553 17.0711 23.206C16.9422 23.1516 16.8171 23.0874 16.6969 23.0138L15.3528 22.2343V20.6155C15.3528 19.5085 15.9919 18.5503 16.9194 18.0931Z" fill="#2B0067"/>
</g>
</svg>
