<svg width="48" height="48" viewBox="0 0 48 48" fill="none" xmlns="http://www.w3.org/2000/svg">
<mask id="mask0" mask-type="alpha" maskUnits="userSpaceOnUse" x="0" y="0" width="134" height="48">
<rect width="133.844" height="47.9995" fill="white"/>
</mask>
<g mask="url(#mask0)">
<path fill-rule="evenodd" clip-rule="evenodd" d="M0.140898 10.8611C0.344526 10.2168 0.778712 9.6439 1.40684 9.27969L16.7595 0.37627C18.0957 -0.398658 19.8067 0.0618783 20.5782 1.40406C21.3495 2.74608 20.891 4.46468 19.555 5.23961L8.39208 11.7133L19.555 18.1869C20.891 18.9618 21.3495 20.6804 20.5782 22.0226C19.8067 23.3646 18.0957 23.8252 16.7595 23.0502L5.59976 16.5785V29.522C5.59976 31.0717 4.34728 32.3299 2.80448 32.3299C1.26167 32.3299 0.0090332 31.0717 0.0090332 29.522V11.7152V11.7119C0.0090332 11.5022 0.0323518 11.2914 0.0803028 11.0834L0.0806312 11.0813L0.0807955 11.0809L0.0809597 11.0803L0.0817808 11.0765C0.098695 11.0036 0.118565 10.9317 0.140898 10.8611Z" fill="#FFCD44"/>
<path fill-rule="evenodd" clip-rule="evenodd" d="M27.921 11.7133L16.7581 5.23961C15.4219 4.46468 14.9636 2.74608 15.7349 1.40406C16.5064 0.0618783 18.2173 -0.398658 19.5534 0.37627L34.9062 9.27969C35.5344 9.6439 35.9684 10.2168 36.172 10.8611C36.1945 10.9317 36.2144 11.0036 36.2313 11.0765L36.2323 11.0813L36.2328 11.0834C36.2806 11.2914 36.304 11.5022 36.304 11.7119V11.7152V29.522C36.304 31.0717 35.0514 32.3299 33.5086 32.3299C31.9658 32.3299 30.7132 31.0717 30.7132 29.522V16.5785L19.5534 23.0502C18.2173 23.8252 16.5064 23.3646 15.7349 22.0226C14.9636 20.6804 15.4219 18.9618 16.7581 18.1869L27.921 11.7133Z" fill="#27BEFF"/>
<path fill-rule="evenodd" clip-rule="evenodd" d="M18.1566 0C18.5308 0.000329897 18.9011 0.0762062 19.2443 0.221526C19.3491 0.266062 19.4524 0.317691 19.5534 0.376247L19.6155 0.412206C20.0017 0.648742 20.3362 0.982928 20.5783 1.40404C21.3496 2.74606 20.8911 4.46466 19.555 5.23959L18.1566 6.05064L16.7581 5.23959C15.4219 4.46466 14.9636 2.74606 15.7349 1.40404C15.9769 0.982928 16.3113 0.648742 16.6977 0.412206L16.7596 0.376247C16.8607 0.317691 16.9639 0.266062 17.0688 0.221526C17.412 0.0762062 17.7823 0.000329897 18.1566 0V0Z" fill="#007C65"/>
<path fill-rule="evenodd" clip-rule="evenodd" d="M20.9436 33.5631L32.1065 27.0893C33.4427 26.3146 35.1537 26.775 35.9252 28.1171C36.6965 29.4592 36.238 31.1779 34.9019 31.9527L19.5491 40.8561C18.9211 41.2205 18.2101 41.3117 17.5529 41.1667C17.4808 41.1509 17.4089 41.1322 17.3374 41.1103L17.3328 41.109L17.3307 41.1083C17.1276 41.046 16.9339 40.9609 16.7533 40.8559L16.7505 40.8543L1.39783 31.9509C0.0616034 31.1761 -0.396887 29.4573 0.374599 28.1153C1.14592 26.7731 2.85705 26.3128 4.19311 27.0875L15.3529 33.5593V20.6156C15.3529 19.0659 16.6053 17.8079 18.1482 17.8079C19.691 17.8079 20.9436 19.0659 20.9436 20.6156V33.5631Z" fill="#AC5ED1"/>
<path fill-rule="evenodd" clip-rule="evenodd" d="M0.0090332 29.2907C0.0412195 28.8887 0.160604 28.4875 0.374577 28.1154C1.1459 26.7732 2.85703 26.3129 4.19308 27.0876L5.59976 27.9035V29.5221C5.59976 31.0718 4.34728 32.33 2.80448 32.33C1.26167 32.33 0.0090332 31.0718 0.0090332 29.5221L0.0090332 29.2907Z" fill="#9F008C"/>
<path fill-rule="evenodd" clip-rule="evenodd" d="M30.7131 27.8974L32.1065 27.0893C33.4427 26.3146 35.1537 26.7749 35.9252 28.1171C36.6965 29.4591 36.238 31.1779 34.9019 31.9527L34.7881 32.0187C34.4047 32.2176 33.9695 32.3299 33.5086 32.3299C31.9658 32.3299 30.7131 31.0717 30.7131 29.522V27.8974Z" fill="#5F1DC0"/>
<path fill-rule="evenodd" clip-rule="evenodd" d="M16.9194 18.0931L18.1564 17.3757L19.5549 18.1868C20.5208 18.7469 21.0281 19.8005 20.9435 20.8484V22.244L19.6158 23.0138C19.4958 23.0874 19.3706 23.1516 19.2417 23.206C18.8905 23.3551 18.5217 23.4267 18.1564 23.4264C17.7912 23.4267 17.4224 23.3553 17.0711 23.206C16.9422 23.1516 16.8171 23.0874 16.6969 23.0138L15.3528 22.2343V20.6155C15.3528 19.5085 15.9919 18.5503 16.9194 18.0931Z" fill="#2B0067"/>
</g>
</svg>
