<svg width="40" height="40" viewBox="0 0 40 40" fill="none" xmlns="http://www.w3.org/2000/svg">
<path fill-rule="evenodd" clip-rule="evenodd" d="M16.2053 8.84359L20.6841 1.07636C21.0874 0.376976 21.8246 -0.0102549 22.5783 0.000206593C22.5881 5.27467e-05 22.5981 5.27467e-05 22.6079 5.27467e-05H32.7516C33.5833 5.27467e-05 34.3053 0.474053 34.6627 1.16667L39.6825 9.87221C39.8803 10.215 39.9729 10.5899 39.9705 10.9594C39.9729 11.3288 39.8803 11.7037 39.6825 12.0467L35.234 19.7614L39.6825 27.4762C39.8803 27.819 39.9729 28.1939 39.9705 28.5634C39.9729 28.933 39.8803 29.3077 39.6825 29.6507L34.6627 38.3562C34.3053 39.0488 33.5833 39.5227 32.7516 39.5228H22.6079C22.5981 39.5228 22.5881 39.5227 22.5783 39.5225C21.8246 39.533 21.0874 39.1459 20.6841 38.4465L16.2532 30.7624H7.2837L7.25405 30.7621L7.21871 30.7624C6.4775 30.7604 5.75688 30.3745 5.35984 29.6861L0.288137 20.8902C0.0903886 20.5474 -0.00226282 20.1725 4.19375e-05 19.803C-0.00226282 19.4334 0.0903886 19.0587 0.288137 18.7157L5.35984 9.9199C5.75688 9.23144 6.4775 8.84559 7.21871 8.84359L7.25405 8.8439L7.2837 8.84359H16.2053ZM31.5134 21.9187H23.7815L19.9501 28.5634L23.787 35.2177H31.5077L35.3448 28.5634L31.5134 21.9187ZM16.1836 13.1487H8.46282L4.62585 19.803L8.46282 26.4573H16.1836L20.0206 19.803L16.1836 13.1487ZM31.5077 4.30513H23.787L19.9501 10.9594L23.7815 17.6041H31.5134L35.3448 10.9594L31.5077 4.30513Z" fill="url(#paint0_linear)"/>
<path fill-rule="evenodd" clip-rule="evenodd" d="M16.2053 8.84359L20.6841 1.07636C21.0874 0.376976 21.8246 -0.0102549 22.5783 0.000206593C22.5881 5.27467e-05 22.5981 5.27467e-05 22.6079 5.27467e-05H32.7516C33.5833 5.27467e-05 34.3053 0.474053 34.6627 1.16667L39.6825 9.87221C39.8803 10.215 39.9729 10.5899 39.9705 10.9594C39.9729 11.3288 39.8803 11.7037 39.6825 12.0467L35.234 19.7614L39.6825 27.4762C39.8803 27.819 39.9729 28.1939 39.9705 28.5634C39.9729 28.933 39.8803 29.3077 39.6825 29.6507L34.6627 38.3562C34.3053 39.0488 33.5833 39.5227 32.7516 39.5228H22.6079C22.5981 39.5228 22.5881 39.5227 22.5783 39.5225C21.8246 39.533 21.0874 39.1459 20.6841 38.4465L16.2532 30.7624H7.2837L7.25405 30.7621L7.21871 30.7624C6.4775 30.7604 5.75688 30.3745 5.35984 29.6861L0.288137 20.8902C0.0903886 20.5474 -0.00226282 20.1725 4.19375e-05 19.803C-0.00226282 19.4334 0.0903886 19.0587 0.288137 18.7157L5.35984 9.9199C5.75688 9.23144 6.4775 8.84559 7.21871 8.84359L7.25405 8.8439L7.2837 8.84359H16.2053ZM31.5134 21.9187H23.7815L19.9501 28.5634L23.787 35.2177H31.5077L35.3448 28.5634L31.5134 21.9187ZM16.1836 13.1487H8.46282L4.62585 19.803L8.46282 26.4573H16.1836L20.0206 19.803L16.1836 13.1487ZM31.5077 4.30513H23.787L19.9501 10.9594L23.7815 17.6041H31.5134L35.3448 10.9594L31.5077 4.30513Z" fill="url(#paint1_linear)"/>
<path fill-rule="evenodd" clip-rule="evenodd" d="M16.2053 8.84359L20.6841 1.07636C21.0874 0.376976 21.8246 -0.0102549 22.5783 0.000206593C22.5881 5.27467e-05 22.5981 5.27467e-05 22.6079 5.27467e-05H32.7516C33.5833 5.27467e-05 34.3053 0.474053 34.6627 1.16667L39.6825 9.87221C39.8803 10.215 39.9729 10.5899 39.9705 10.9594C39.9729 11.3288 39.8803 11.7037 39.6825 12.0467L35.234 19.7614L39.6825 27.4762C39.8803 27.819 39.9729 28.1939 39.9705 28.5634C39.9729 28.933 39.8803 29.3077 39.6825 29.6507L34.6627 38.3562C34.3053 39.0488 33.5833 39.5227 32.7516 39.5228H22.6079C22.5981 39.5228 22.5881 39.5227 22.5783 39.5225C21.8246 39.533 21.0874 39.1459 20.6841 38.4465L16.2532 30.7624H7.2837L7.25405 30.7621L7.21871 30.7624C6.4775 30.7604 5.75688 30.3745 5.35984 29.6861L0.288137 20.8902C0.0903886 20.5474 -0.00226282 20.1725 4.19375e-05 19.803C-0.00226282 19.4334 0.0903886 19.0587 0.288137 18.7157L5.35984 9.9199C5.75688 9.23144 6.4775 8.84559 7.21871 8.84359L7.25405 8.8439L7.2837 8.84359H16.2053ZM31.5134 21.9187H23.7815L19.9501 28.5634L23.787 35.2177H31.5077L35.3448 28.5634L31.5134 21.9187ZM16.1836 13.1487H8.46282L4.62585 19.803L8.46282 26.4573H16.1836L20.0206 19.803L16.1836 13.1487ZM31.5077 4.30513H23.787L19.9501 10.9594L23.7815 17.6041H31.5134L35.3448 10.9594L31.5077 4.30513Z" fill="url(#paint2_linear)"/>
<path fill-rule="evenodd" clip-rule="evenodd" d="M16.2053 8.84359L20.6841 1.07636C21.0874 0.376976 21.8246 -0.0102549 22.5783 0.000206593C22.5881 5.27467e-05 22.5981 5.27467e-05 22.6079 5.27467e-05H32.7516C33.5833 5.27467e-05 34.3053 0.474053 34.6627 1.16667L39.6825 9.87221C39.8803 10.215 39.9729 10.5899 39.9705 10.9594C39.9729 11.3288 39.8803 11.7037 39.6825 12.0467L35.234 19.7614L39.6825 27.4762C39.8803 27.819 39.9729 28.1939 39.9705 28.5634C39.9729 28.933 39.8803 29.3077 39.6825 29.6507L34.6627 38.3562C34.3053 39.0488 33.5833 39.5227 32.7516 39.5228H22.6079C22.5981 39.5228 22.5881 39.5227 22.5783 39.5225C21.8246 39.533 21.0874 39.1459 20.6841 38.4465L16.2532 30.7624H7.2837L7.25405 30.7621L7.21871 30.7624C6.4775 30.7604 5.75688 30.3745 5.35984 29.6861L0.288137 20.8902C0.0903886 20.5474 -0.00226282 20.1725 4.19375e-05 19.803C-0.00226282 19.4334 0.0903886 19.0587 0.288137 18.7157L5.35984 9.9199C5.75688 9.23144 6.4775 8.84559 7.21871 8.84359L7.25405 8.8439L7.2837 8.84359H16.2053ZM31.5134 21.9187H23.7815L19.9501 28.5634L23.787 35.2177H31.5077L35.3448 28.5634L31.5134 21.9187ZM16.1836 13.1487H8.46282L4.62585 19.803L8.46282 26.4573H16.1836L20.0206 19.803L16.1836 13.1487ZM31.5077 4.30513H23.787L19.9501 10.9594L23.7815 17.6041H31.5134L35.3448 10.9594L31.5077 4.30513Z" fill="url(#paint3_linear)"/>
<defs>
<linearGradient id="paint0_linear" x1="47.4497" y1="21.1682" x2="20.544" y2="-4.90643" gradientUnits="userSpaceOnUse">
<stop stop-color="#FF2A7A"/>
<stop offset="1" stop-color="#FFD65F"/>
</linearGradient>
<linearGradient id="paint1_linear" x1="29.1026" y1="-2.26479" x2="10.0555" y2="12.4036" gradientUnits="userSpaceOnUse">
<stop stop-color="#00D3FF"/>
<stop offset="1" stop-color="#8A00FF" stop-opacity="0.01"/>
</linearGradient>
<linearGradient id="paint2_linear" x1="53.8827" y1="17.462" x2="29.2244" y2="7.33744" gradientUnits="userSpaceOnUse">
<stop stop-color="#A500FF"/>
<stop offset="1" stop-color="#8A00FF" stop-opacity="0.01"/>
</linearGradient>
<linearGradient id="paint3_linear" x1="14.7334" y1="-2.99707" x2="14.2827" y2="11.9263" gradientUnits="userSpaceOnUse">
<stop stop-color="#00FF99"/>
<stop offset="1" stop-color="#00E3FF" stop-opacity="0.01"/>
</linearGradient>
</defs>
</svg>
